<svg width="10" height="11" viewBox="0 0 10 11" fill="none" xmlns="http://www.w3.org/2000/svg">
<path fill-rule="evenodd" clip-rule="evenodd" d="M4.77894 0.00861849C4.15957 0.0481167 3.57928 0.268895 3.0628 0.661539C2.93176 0.761163 2.61792 1.07364 2.51865 1.20332C2.07282 1.78578 1.85482 2.42095 1.85478 3.13764C1.85475 3.64963 1.95285 4.07952 2.17104 4.52342C2.30737 4.80081 2.45295 5.01684 2.66267 5.25303C2.84151 5.45442 3.12079 5.68627 3.35267 5.82582C3.41281 5.86202 3.46203 5.89321 3.46203 5.89512C3.46203 5.89703 3.43052 5.90888 3.39203 5.92145C3.25447 5.96635 2.97708 6.0806 2.81394 6.15954C2.00849 6.54932 1.30894 7.15433 0.794738 7.90586C0.517295 8.31137 0.291947 8.79575 0.14971 9.29237C0.0657388 9.58557 -0.0071891 9.96895 0.000567204 10.0764C0.0118906 10.2333 0.147699 10.3609 0.303156 10.3609C0.37849 10.3608 0.429186 10.3409 0.486819 10.2887C0.55787 10.2244 0.574855 10.1831 0.609873 9.98936C0.741854 9.25905 1.02212 8.60868 1.4611 8.01402C1.95727 7.34188 2.67288 6.78902 3.44129 6.48418C4.92392 5.89601 6.56268 6.19338 7.81199 7.27728C8.61718 7.97588 9.16568 8.94696 9.34636 9.99379C9.38389 10.2113 9.42088 10.2776 9.53608 10.3341C9.70662 10.4177 9.91741 10.3028 9.95363 10.1065C9.96216 10.0602 9.96004 10.0219 9.94276 9.91054C9.83268 9.20084 9.56934 8.51612 9.18577 7.94223C8.5627 7.00999 7.66559 6.3111 6.61241 5.93742L6.49125 5.89444L6.60185 5.82722C7.00996 5.57921 7.40246 5.18514 7.65231 4.77256C8.28089 3.73463 8.25388 2.41449 7.58343 1.40596C7.41288 1.1494 7.14225 0.854458 6.91446 0.676898C6.39034 0.268334 5.81847 0.0508393 5.15716 0.00856653C4.97836 -0.00286415 4.95885 -0.00286415 4.77894 0.00861849ZM5.31815 0.554267C5.77009 0.621459 6.20587 0.815583 6.57896 1.1159C7.12784 1.55773 7.49925 2.22929 7.56925 2.90653C7.58456 3.05466 7.57596 3.37513 7.55305 3.5101C7.46673 4.01865 7.23754 4.46863 6.87356 4.84421C6.40322 5.32952 5.80256 5.60816 5.13502 5.65068C4.39266 5.69797 3.65697 5.41637 3.1176 4.87846C2.91572 4.67714 2.7523 4.44813 2.62694 4.19089C2.50668 3.94414 2.43355 3.70455 2.39892 3.44397C2.37475 3.26197 2.38172 2.91465 2.41303 2.74127C2.5523 1.96997 3.02236 1.29885 3.71225 0.88636C4.03358 0.694231 4.38477 0.578542 4.76857 0.538379C4.8881 0.525878 5.18491 0.534451 5.31815 0.554267Z" fill="#012433"/>
</svg>
